<svg version="1.1" xmlns="http://www.w3.org/2000/svg" style="display: block;" viewBox="0 0 2048 2048" width="1254" height="1254" preserveAspectRatio="none">
<path transform="translate(0,0)" fill="rgb(255,255,255)" d="M 0 0 L 2048 0 L 2048 2048 L 0 2048 L 0 0 z"/>
<path transform="translate(0,0)" fill="rgb(254,62,0)" d="M 621.442 209.556 C 643.993 228.263 672.821 247.647 696.601 265.689 C 655.638 321.416 615.607 377.821 576.524 434.882 C 630.564 388.455 685.174 342.696 740.344 297.617 C 762.677 313.995 785.113 330.233 807.65 346.331 C 768.012 399.764 728.938 462.327 691.724 517.946 C 744.17 470.536 797.207 423.783 850.823 377.7 C 874.457 395.436 899.014 412.538 922.336 430.596 C 912.442 439.755 895.683 452.384 884.73 461.248 L 811.371 521.009 C 743.315 576.225 675.737 632.027 608.643 688.408 C 586.684 673.5 562.951 655.716 541.295 639.995 L 648.424 459.662 C 592.213 504.737 536.776 550.769 482.137 597.737 L 412.196 547.438 C 456.867 473.272 501.915 399.334 547.34 325.627 L 587.984 259.437 C 598.155 242.966 609.123 224.19 621.442 209.556 z"/>
<path transform="translate(0,0)" fill="rgb(254,62,0)" d="M 935.296 439.579 C 957.788 456.539 980.729 472.81 1003.38 489.588 C 998.016 498.082 992.159 506.898 986.472 515.176 C 953.929 562.547 923.983 613.088 890.437 659.647 C 908.915 644.551 929.188 625.831 947.215 609.967 C 980.498 580.586 1013.95 551.398 1047.57 522.403 C 1065.39 534.743 1084.72 549.648 1102.32 562.606 C 1067.58 620.236 1030.71 676.305 996.951 734.677 C 1043.52 688.15 1091.34 636.262 1137.37 588.45 C 1158.91 604.734 1180.6 620.81 1202.44 636.676 C 1190.6 648.96 1175.22 662.879 1162.73 674.831 L 1088.54 745.846 C 1044.23 789.973 997.746 832.441 953.102 876.285 C 941.676 887.505 929.812 899.123 917.946 909.804 C 895.905 894.414 873.708 878.051 851.87 862.295 C 886.621 803.568 921.07 744.662 955.215 685.581 C 903.416 728.51 848.628 778.796 798.318 823.937 L 730.726 775.296 C 749.933 740.402 777.985 696.694 798.901 662.096 C 843.799 587.577 889.265 513.403 935.296 439.579 z"/>
<path transform="translate(0,0)" fill="rgb(3,43,101)" d="M 2001.86 349.898 C 2012.41 349.844 2020.6 354.896 2013 364.357 C 1999.77 380.843 1988.16 398.484 1976.11 415.738 L 1864.68 572.867 C 1753.18 730.281 1640.23 886.666 1525.85 1042 C 1562.32 1069.01 1596.89 1105.24 1589.38 1153.96 C 1610.75 1172.21 1592.99 1193.29 1569.22 1177.21 C 1529.44 1194.41 1476.41 1163.92 1446.75 1138.65 C 1247.4 1378.66 1046.42 1617.31 843.813 1854.59 C 836.975 1862.81 828.686 1868.38 817.126 1862.69 C 812.134 1860.23 813.093 1854.12 816.442 1850.57 C 820.215 1846.58 825.409 1850.65 828.59 1845.84 C 849.289 1819.01 870.139 1792.3 890.852 1765.48 L 1003.55 1620.03 L 1410.66 1094.37 C 1420.17 1113.6 1430.03 1125.05 1447.22 1138.25 C 1450.49 1136.82 1453.29 1135.53 1456.3 1133.71 C 1482.83 1117.7 1458.95 1099.86 1463.67 1084.52 C 1470.73 1061.56 1497.57 1074.9 1511.73 1065.7 C 1520.99 1059.69 1522.72 1051.34 1524.94 1041.96 C 1507.94 1029.27 1493.66 1022.6 1473.38 1016.94 L 1912.78 462.11 L 1981.31 376.488 C 1985.75 370.926 1998.04 352.43 2001.86 349.898 z"/>
<path transform="translate(0,0)" fill="rgb(254,62,0)" d="M 1227 677.205 C 1257.37 675.486 1272.06 692.618 1295.12 709.694 L 1359.01 757.011 C 1348.18 772.795 1328.44 796.693 1316.21 812.596 C 1292.21 795.088 1267.83 776.647 1243.54 759.718 C 1235 768.841 1222.92 785.236 1214.61 795.658 L 1151.87 875.527 L 1116.75 920.233 C 1110.41 928.254 1099.54 941.227 1094.78 949.629 C 1101.25 955.388 1106.57 958.913 1113.78 963.788 C 1131.31 940.119 1148.97 916.545 1166.76 893.067 C 1180.47 874.772 1195.28 854.191 1209.61 836.658 C 1219.6 844.221 1229.73 851.609 1239.98 858.819 C 1249.57 865.792 1259.13 872.814 1268.65 879.883 C 1238.51 919.836 1208.08 959.574 1177.37 999.094 C 1162.31 1018.52 1145.19 1041.36 1129.18 1059.82 C 1107.88 1044.63 1086.67 1029.3 1065.56 1013.83 C 1058.06 1008.37 1049.79 1002.01 1042.26 996.79 C 985.23 957.255 1016.72 923.848 1048.3 883.146 C 1064.77 861.989 1081.12 840.731 1097.33 819.374 L 1163.57 732.743 C 1183.43 706.98 1193.66 685.189 1227 677.205 z"/>
<path transform="translate(0,0)" fill="rgb(254,62,0)" d="M 1391.04 798.142 C 1402.4 797.267 1417.52 800.544 1425.97 808.119 C 1444.99 825.184 1482.8 845.183 1497.78 863.7 C 1502.28 869.223 1505.2 875.872 1506.2 882.93 C 1509.98 908.938 1487.63 932.738 1472.92 951.956 L 1433.53 1003.41 L 1374.79 960.949 C 1389.68 938.926 1410.65 913.336 1426.79 890.86 C 1421.15 885.661 1411.93 879.463 1405.49 874.853 C 1398.94 881.141 1388.23 895.838 1382.48 903.397 L 1345.4 952.256 L 1289.26 1026.25 C 1278.43 1040.43 1265.32 1056.69 1255.35 1071.24 C 1261.4 1077.52 1270.15 1083.24 1277.57 1087.81 C 1282.99 1082.41 1292.72 1069.05 1297.86 1062.32 C 1309.69 1046.67 1321.61 1031.1 1333.64 1015.6 C 1352.06 1029.77 1373.04 1044.47 1391.92 1058.25 C 1380.39 1074.59 1366.36 1091.49 1354.62 1107.14 C 1325.56 1145.88 1299.03 1188.27 1247.34 1147.21 C 1227.2 1131.53 1204.04 1117.62 1185.53 1100.16 C 1178.81 1091.98 1174.39 1078.41 1175.96 1067.76 C 1179.52 1043.43 1203.24 1018.07 1217.95 998.746 L 1278.78 918.834 L 1327.81 853.918 C 1346.79 828.763 1358.59 805.899 1391.04 798.142 z"/>
<path transform="translate(0,0)" fill="rgb(3,43,101)" d="M 625.807 870.088 C 657.682 868.266 659.591 900.702 646.365 921.813 C 636.209 938.022 626.999 951.181 607.716 956.696 C 554.54 959.348 585.775 881.09 625.807 870.088 z"/>
<path transform="translate(0,0)" fill="rgb(255,255,255)" d="M 629.329 879.206 C 631.465 879.496 633.558 880.041 635.564 880.831 C 662.754 891.495 625.059 941.425 604.673 948.106 C 601.582 947.759 599.073 947.112 596.271 945.638 C 592.8 943.822 590.255 940.626 589.262 936.836 C 584.678 919.149 611.363 883.803 629.329 879.206 z"/>
<path transform="translate(0,0)" fill="rgb(3,43,101)" d="M 559.553 995.42 C 564.556 997.881 573.231 1004.25 577.831 1007.61 C 610.4 1031.36 573.254 1085.57 541.671 1088.82 C 528.485 1086.83 518.155 1077.6 507.334 1069.73 C 524.273 1048.1 543.832 1018.49 559.553 995.42 z"/>
<path transform="translate(0,0)" fill="rgb(255,255,255)" d="M 562.607 1009.43 C 602.667 1024.54 565.7 1074.73 541.183 1079.54 C 533.599 1077.56 527.637 1072.74 521.166 1068.29 C 535.094 1049.41 549.245 1028.75 562.607 1009.43 z"/>
<path transform="translate(0,0)" fill="rgb(3,43,101)" d="M 935.306 1260.64 C 952.68 1272.95 982.352 1287.03 959.08 1312.79 C 954.809 1317.52 952.47 1317.52 946.355 1317.36 L 944.874 1317.3 C 944.179 1317.87 943.485 1318.43 942.791 1318.99 C 946.908 1335.4 947.297 1351.28 920.593 1357.44 C 907.992 1355.62 893.528 1343.4 882.874 1335.75 L 935.306 1260.64 z"/>
<path transform="translate(0,0)" fill="rgb(255,255,255)" d="M 915.632 1306.7 C 925.835 1314.69 943.952 1321.9 933.029 1338.15 C 928.938 1344.23 925.645 1346.03 918.566 1347.62 C 910.877 1344.78 903.341 1338.9 896.594 1334.07 L 915.632 1306.7 z"/>
<path transform="translate(0,0)" fill="rgb(255,255,255)" d="M 938.15 1274.56 C 957.937 1283.04 966.426 1304.22 941.286 1311.25 C 933.684 1309.09 927.073 1303.63 920.789 1298.91 L 938.15 1274.56 z"/>
<path transform="translate(0,0)" fill="rgb(3,43,101)" d="M 211.499 572.574 C 213.856 574.1 217.633 577.125 220.014 578.902 C 209.969 600.254 199.708 625.282 189.971 647.171 C 206.213 630.098 226.081 611.463 243.072 594.672 L 251.895 601.016 C 241.387 624.146 232.203 647.752 221.467 670.876 C 239.127 652.866 257.288 635.273 275.083 617.359 L 283.303 623.283 L 270.839 635.298 C 252.478 653.429 233.991 671.432 215.38 689.305 L 206.786 682.993 C 214.658 662.356 227.429 633.792 236.852 613.61 C 219 631.468 200.995 649.171 182.839 666.719 L 173.773 660.023 C 185.584 634.562 201.546 598.442 211.499 572.574 z"/>
<path transform="translate(0,0)" fill="rgb(3,43,101)" d="M 911.367 1065.51 C 932.833 1077.67 961.464 1097.57 932.615 1122.43 C 926.195 1127.97 920.43 1128.04 912.456 1126.94 C 909.491 1141.84 905.732 1156.05 903.172 1171.15 L 893.431 1164.38 L 900.5 1135.85 L 903.72 1122.72 L 890.476 1113.29 C 882.785 1123.75 875.031 1135.13 867.504 1145.78 L 859.276 1140.05 L 911.367 1065.51 z"/>
<path transform="translate(0,0)" fill="rgb(255,255,255)" d="M 914.983 1078.92 C 922.343 1084.01 929.285 1087.82 932.925 1096.57 C 937.834 1108.38 926.601 1116.11 916.229 1118.35 C 908.69 1115.24 902.714 1110.52 896.022 1105.84 C 902.146 1096.73 908.468 1087.76 914.983 1078.92 z"/>
<path transform="translate(0,0)" fill="rgb(3,43,101)" d="M 1022.09 1144.49 C 1041.29 1154.81 1070.45 1176.03 1044.17 1200.5 C 1038.27 1206 1030.38 1206.27 1022.68 1205.89 C 1020.88 1218.61 1016.52 1236.96 1013.47 1249.62 L 1004.45 1243.5 C 1006.81 1234.1 1008.86 1224.26 1010.98 1214.78 L 1014.14 1201.35 L 1001.09 1192.01 C 993.724 1203.27 986.165 1213.61 978.247 1224.49 L 969.793 1218.8 C 986.649 1196.1 1006.06 1167.87 1022.09 1144.49 z"/>
<path transform="translate(0,0)" fill="rgb(255,255,255)" d="M 1025.51 1157.51 C 1032.27 1162.24 1039.79 1166.54 1043.02 1174.51 C 1047.75 1186.18 1037.53 1194.16 1027.27 1196.99 C 1020.94 1195.3 1012.08 1188.46 1006.41 1184.46 C 1012.37 1176.91 1019.83 1165.64 1025.51 1157.51 z"/>
<path transform="translate(0,0)" fill="rgb(3,43,101)" d="M 757.902 956.752 L 765.861 962.655 C 756.876 984.585 746.969 1006.4 737.828 1028.4 C 754.882 1011.91 772.031 995.525 789.274 979.237 L 797.522 985.145 C 787.971 1007.84 778.259 1030.47 768.385 1053.02 C 785.651 1035.69 803.18 1018.63 820.968 1001.83 L 829.236 1007.43 L 816.314 1019.53 L 762.189 1071.21 L 753.353 1064.73 C 762.878 1042.3 772.645 1019.96 782.65 997.733 C 765.132 1014.72 747.517 1031.61 729.807 1048.4 L 721.532 1042.72 C 732.363 1014.96 745.685 983.954 757.902 956.752 z"/>
<path transform="translate(0,0)" fill="rgb(3,43,101)" d="M 1131.68 1222.59 C 1141.53 1229.23 1159.94 1239.46 1162.62 1251.36 C 1166.23 1267.35 1150.17 1288.82 1132.71 1284.98 C 1124.91 1283.27 1116.26 1276.04 1109.75 1271.25 L 1102.97 1281.4 L 1087.86 1302.92 L 1079.89 1296.95 C 1096.96 1272.03 1114.22 1247.24 1131.68 1222.59 z"/>
<path transform="translate(0,0)" fill="rgb(255,255,255)" d="M 1134.67 1236.43 C 1156.65 1245.28 1160.72 1265.83 1136.84 1275.83 C 1127.83 1273.75 1122.68 1269.28 1115.09 1263.97 C 1121.72 1254.86 1128.25 1245.69 1134.67 1236.43 z"/>
<path transform="translate(0,0)" fill="rgb(3,43,101)" d="M 642.141 1052.73 L 652.253 1059.8 C 646.616 1083.3 643.14 1110.91 638.254 1135.2 C 651.68 1116.29 664.887 1097.22 677.872 1078.01 C 680.227 1079.41 683.556 1081.82 685.901 1083.4 C 675.072 1100.25 646.604 1139.01 634.439 1157.52 C 633.79 1157.69 633.141 1157.86 632.493 1158.03 C 629.283 1155.83 628.779 1155.52 626.21 1152.67 C 625.269 1144.27 637.281 1085.35 639.511 1073.14 C 625.37 1093.09 611.405 1113.17 597.616 1133.37 L 589.843 1127.81 C 606.741 1102.79 624.804 1077.52 642.141 1052.73 z"/>
<path transform="translate(0,0)" fill="rgb(3,43,101)" d="M 464.761 751.414 C 467.022 752.518 472.226 756.508 474.525 758.169 C 470.573 781.744 466.148 811.879 460.763 834.645 C 474.147 815.771 487.672 795.299 500.879 776.13 L 508.69 781.82 L 456.801 856.437 L 454.732 856.274 L 448.158 851.372 C 453.006 825.118 458.345 797.792 462.231 771.472 C 449.44 791.56 433.863 812.356 420.431 832.598 L 412.56 826.707 L 464.761 751.414 z"/>
<path transform="translate(0,0)" fill="rgb(3,43,101)" d="M 678.531 901.451 C 681.666 903.493 685.424 906.341 688.541 908.56 C 684.261 932.598 680.447 961.509 675.052 984.758 C 686.471 966.276 701.987 944.947 714.629 926.765 L 722.41 932.435 C 716.568 940.949 673.02 1005.6 669.369 1006.41 L 662.627 1001.2 C 667.553 974.788 672.06 948.305 676.145 921.755 C 662.149 941.51 648.299 961.975 634.503 981.917 L 626.682 976.45 L 678.531 901.451 z"/>
<path transform="translate(0,0)" fill="rgb(3,43,101)" d="M 1189.34 1263.67 C 1192.34 1264.77 1196.55 1268.18 1199.28 1270.17 C 1187.9 1298.17 1176.64 1330.25 1166.4 1358.91 L 1157.54 1352.59 L 1167.46 1326.51 L 1159.59 1320.58 L 1146.62 1311.63 C 1139.65 1317.16 1132.19 1323.8 1125.35 1329.61 L 1116.72 1323.57 C 1140.77 1304.42 1165.15 1283.27 1189.34 1263.67 z"/>
<path transform="translate(0,0)" fill="rgb(255,255,255)" d="M 1184.65 1278.99 L 1184.78 1279.09 C 1185.79 1282.11 1172.84 1312.43 1170.91 1317.27 L 1161.66 1310.91 L 1153.9 1305.32 C 1164.23 1296.64 1174.48 1287.86 1184.65 1278.99 z"/>
<path transform="translate(0,0)" fill="rgb(3,43,101)" d="M 847.092 1019.82 C 849.141 1020.97 854.502 1024.93 856.699 1026.45 C 845.497 1053.61 834.114 1087.23 823.856 1115.28 L 815.515 1109.37 C 818.459 1100.57 821.935 1091.82 825.26 1083.16 L 815.366 1076.21 L 803.966 1067.99 C 797.021 1074.03 790.043 1080.03 783.034 1085.99 L 774.528 1079.69 C 798.1 1061.17 823.646 1039.11 847.092 1019.82 z"/>
<path transform="translate(0,0)" fill="rgb(255,255,255)" d="M 841.639 1035.86 C 842.803 1040.22 830.584 1068.55 828.243 1074.29 C 825.662 1072.2 822.214 1069.81 819.476 1067.79 L 810.893 1062.19 C 821.194 1053.47 831.443 1044.69 841.639 1035.86 z"/>
<path transform="translate(0,0)" fill="rgb(3,43,101)" d="M 1092.35 1194.73 C 1094.65 1195.64 1100 1199.95 1102.3 1201.66 C 1091.42 1231.08 1080.72 1260.56 1070.19 1290.1 L 1061.54 1283.88 L 1071.03 1257.83 L 1062.15 1251.33 L 1050.42 1243.03 L 1029.46 1261.1 L 1020.6 1255.14 C 1044.68 1235.2 1068.6 1215.07 1092.35 1194.73 z"/>
<path transform="translate(0,0)" fill="rgb(255,255,255)" d="M 1087.57 1210.9 C 1088.43 1214.61 1076.98 1242.26 1074.57 1248.77 L 1064.76 1242.02 L 1057.7 1236.67 C 1067.58 1228.59 1077.88 1219.31 1087.57 1210.9 z"/>
<path transform="translate(0,0)" fill="rgb(3,43,101)" d="M 981.98 1115.89 C 984.847 1117.59 988.928 1120.76 991.746 1122.8 C 980.773 1148.8 969.286 1184.24 959.67 1211.47 L 950.773 1204.95 L 960.701 1178.87 L 950.53 1171.55 L 939.77 1164.09 C 932.504 1170.32 925.573 1176.28 918 1182.16 L 910.087 1175.95 C 934.22 1156.14 958.185 1136.11 981.98 1115.89 z"/>
<path transform="translate(0,0)" fill="rgb(255,255,255)" d="M 976.936 1131.99 L 977.187 1132.27 C 977.684 1136.56 966.307 1163.85 963.913 1169.78 L 954.52 1163.19 L 947.04 1157.94 L 976.936 1131.99 z"/>
<path transform="translate(0,0)" fill="rgb(3,43,101)" d="M 525.384 801.165 C 533.909 800.357 540.412 801.161 547.284 806.637 C 554.014 812.002 560.472 825.967 554.525 833.459 C 553.648 833.758 547.893 834.632 547.734 833.35 C 542.115 788.079 510.921 818.323 498.543 840.869 C 490.803 854.967 482.018 875.076 505.948 879.022 C 512.546 880.11 522.315 865.7 525.571 861.335 L 516.623 854.917 L 514.726 853.194 C 515.064 849.628 516.547 848.856 519.06 845.412 L 538.528 859.464 C 534.729 864.981 515.867 895.177 510.451 895.331 C 507.111 892.103 509.094 889.935 507.09 887.353 C 453.46 884.7 491.654 813.547 525.384 801.165 z"/>
<path transform="translate(0,0)" fill="rgb(3,43,101)" d="M 434.237 915.168 C 448.139 913.895 459.914 918.395 464.958 933.356 C 466.16 936.919 466.589 944.368 464.772 947.671 C 451.064 950.295 459.035 934.519 451.36 928.26 C 431.612 912.157 409.812 948.657 403.134 963.209 C 396.848 976.909 399.321 994.069 417.317 992.188 C 424.56 991.43 431.06 980.719 434.97 975.291 L 427.532 969.842 L 424.423 967.204 C 424.39 963.237 425.608 962.962 428.292 958.885 C 434.743 963.151 441.574 968.505 447.825 973.194 C 444.266 979.09 426.748 1005.29 421.997 1008.55 C 418.656 1007.58 418.889 1007.61 416.224 1005.32 L 418.008 1001.68 C 416.485 1000.95 416.513 1000.75 414.773 1000.79 C 390.738 1001.29 384.451 977.462 393.608 958.701 C 402.863 939.739 414.258 923.124 434.237 915.168 z"/>
<path transform="translate(0,0)" fill="rgb(3,43,101)" d="M 704.687 1103.14 C 734.803 1100.99 739.577 1134.23 730.364 1136.96 C 719.434 1134.45 728.41 1125.26 720.292 1116.64 C 696.993 1091.91 641.635 1182.64 683.529 1180.3 C 692.655 1179.79 699.272 1169.7 703.97 1163.27 L 694.516 1156.21 L 693.407 1155.35 C 693.399 1152.2 695.373 1150.16 697.254 1147.09 C 703.664 1151.77 710.092 1156.73 716.443 1161.52 C 711.253 1170.05 698.104 1189.48 690.982 1196.8 C 690.003 1197.8 689.621 1197.36 687.985 1197.02 C 686.075 1194.58 686.127 1191.63 685.709 1188.43 C 634.707 1194.09 664.691 1113.06 704.687 1103.14 z"/>
<path transform="translate(0,0)" fill="rgb(3,43,101)" d="M 877.063 1219.62 C 879.194 1220.88 883.321 1223.99 885.515 1225.53 C 877.085 1237.46 843.121 1280.6 844.035 1292.51 C 844.36 1296.75 846.67 1300.11 849.891 1302.74 C 852.997 1305.28 856.8 1306.41 860.785 1305.78 C 864.884 1305.12 868.609 1302.72 871.597 1299.94 C 883.3 1289.01 901.902 1258.32 911.505 1244.06 C 915.503 1247.09 917.04 1247.01 918.724 1250.94 L 917.305 1253.56 C 906.241 1268.98 883.553 1309.96 865.163 1315.35 C 848.667 1320.18 826.156 1299.56 836.633 1279.86 C 847.682 1259.07 863.167 1239.31 877.063 1219.62 z"/>
<path transform="translate(0,0)" fill="rgb(3,43,101)" d="M 293.961 630.623 C 306.68 639.197 319.794 648.792 332.373 657.684 L 326.574 665.342 L 297.364 644.658 C 291.552 653.021 285.683 661.345 279.759 669.63 C 286.784 674.957 294.437 680.217 301.652 685.347 L 296.143 693.195 C 289.021 688.499 281.339 682.782 274.322 677.796 L 264.731 691.373 C 261.835 695.907 258.247 700.922 255.178 705.415 L 286.056 726.917 L 280.465 734.426 L 241.123 707.428 L 293.961 630.623 z"/>
<path transform="translate(0,0)" fill="rgb(3,43,101)" d="M 784.212 1160.27 C 797.644 1159.38 808.85 1164.01 813.544 1178.03 C 814.629 1181.27 814.827 1189.76 812.876 1192.48 C 809.852 1192.99 809.234 1193.41 806.394 1192.31 C 803.456 1188.71 803.817 1158.14 779.366 1173.24 C 765.438 1181.84 753.098 1203.5 749.556 1219.04 C 748.309 1224.51 749.969 1229.15 753.111 1233.79 C 767.621 1243.72 771.696 1232.25 778.27 1232.72 C 779.13 1234.81 779.346 1236.2 778.531 1238.35 C 774.528 1248.89 764.476 1249.66 755.729 1245.81 C 735.932 1237.1 735.842 1217.57 744.661 1200.61 C 753.76 1183.11 764.933 1167.02 784.212 1160.27 z"/>
<path transform="translate(0,0)" fill="rgb(3,43,101)" d="M 571.629 825.635 C 585.707 836.028 600.466 846.294 614.743 856.474 L 609.17 864.1 L 591.966 851.807 C 582.305 866.944 568.725 885.203 558.183 900.215 L 544.81 919.188 L 536.49 913.509 C 552.102 890.968 567.845 868.518 583.717 846.16 L 565.78 833.164 C 567.596 831.032 569.867 827.907 571.629 825.635 z"/>
<path transform="translate(0,0)" fill="rgb(3,43,101)" d="M 345.896 667.437 C 348.035 668.455 352.877 672.156 355.044 673.714 L 307.987 741.791 C 317.009 748.625 326.71 755.2 336.013 761.696 L 330.624 769.322 C 318.731 761.749 305.566 752.158 293.858 744.037 C 311.361 718.61 328.707 693.077 345.896 667.437 z"/>
<path transform="translate(0,0)" fill="rgb(3,43,101)" d="M 488.041 945.357 C 490.709 946.259 494.838 949.54 497.281 951.291 L 450.403 1018.28 C 456.918 1023.12 472.548 1033.27 477.367 1037.96 C 477.005 1041.32 475.413 1042.52 473.188 1045.6 C 467.965 1043.37 442.668 1025.02 436.329 1020.54 C 453.53 995.486 471.272 970.659 488.041 945.357 z"/>
<path transform="translate(0,0)" fill="rgb(3,43,101)" d="M 393.212 700.895 C 395.721 702.369 399.515 705.235 402.012 706.997 C 387.067 726.559 369.959 754.083 354.93 774.997 C 364.471 781.503 373.946 788.106 383.352 794.806 L 377.838 802.396 C 370.905 798.808 348.586 782.279 341.011 776.882 L 393.212 700.895 z"/>
<path transform="translate(0,0)" fill="rgb(3,43,101)" d="M 833.291 1188.56 C 836.211 1189.78 839.534 1192.51 842.21 1194.44 C 826.607 1215.72 810.644 1239.69 795.483 1261.5 C 803.868 1268.15 814.775 1275.2 823.74 1281.33 L 817.881 1289.07 C 808.592 1283.49 790.707 1270.09 781.155 1263.35 C 797.08 1243.15 818.216 1210.49 833.291 1188.56 z"/>
<path transform="translate(0,0)" fill="rgb(3,43,101)" d="M 439.85 733.715 L 448.369 740.244 C 430.905 764.219 413.551 790.715 396.849 815.407 C 393.764 814.101 390.884 811.809 388.066 809.858 C 402.608 786.323 423.796 757.044 439.85 733.715 z"/>
<path transform="translate(0,0)" fill="rgb(3,43,101)" d="M 886.563 1047.53 C 889.277 1049.44 892.317 1051.93 894.981 1054 C 877.482 1078.67 860.239 1103.51 843.253 1128.53 C 840.075 1126.74 837.818 1124.71 835.007 1122.42 C 849.153 1099.88 871.117 1069.75 886.563 1047.53 z"/>
<path transform="translate(0,0)" fill="rgb(3,43,101)" d="M 534.689 977.917 L 543.193 983.838 C 525.884 1008.32 508.241 1034.54 491.455 1059.41 L 482.66 1053.18 C 500.268 1029 517.723 1002.69 534.689 977.917 z"/>
<path transform="translate(0,0)" fill="rgb(3,43,101)" d="M 616.688 1035.42 C 618.981 1036.68 623.168 1039.78 625.48 1041.39 C 608.348 1064.54 590.312 1092.35 573.42 1116.44 L 564.853 1110.11 C 582.079 1087.52 600.647 1059.1 616.688 1035.42 z"/>
</svg>